<svg xmlns="http://www.w3.org/2000/svg" height="198.491" width="186.491"><g transform="translate(-3653.601 -1233.741)"><path d="M3746.846 1234.741c-15 42-83.245 48-92.245 46.5 0 81 39.748 143.993 92.245 149.993 52.5-6 92.246-73.5 92.246-149.993-9 1.498-77.246-4.502-92.246-46.5z" fill="#d8e9f7" stroke="#3e4147" stroke-linecap="round" stroke-linejoin="round" stroke-width="2"/><path d="M3761.647 1301.427l-.077-11.467 12.414-.083.151 22.558-.741-.653v.074l-.78-.76zM3744.4 1284.6h-.439l-57.169 57.265 10.662-2.6 10.743 61.471 36.757-.245 36.757-.246 9.921-61.609 10.7 2.458z" fill="#85c3e9"/><path d="M3746.846 1431.231a67.821 67.821 0 0010.323-2.013 96.651 96.651 0 01-24.443-6.448c-20.082-8.607-33.1-20.082-50.315-47.225s-21.626-76.134-21.623-94.162l-6.168 2.273c.78 79.828 40.253 141.636 92.226 147.575z" fill="#85c3e9"/><path d="M3746.846 1234.741c-15 42-83.245 48-92.245 46.5 0 81 39.748 143.993 92.245 149.993 52.5-6 92.246-73.5 92.246-149.993-9 1.498-77.246-4.502-92.246-46.5z" fill="none" stroke="#3e4147" stroke-linecap="round" stroke-linejoin="round" stroke-width="2"/><path d="M3742 1270.5c6.179 11.034 28.018 23.173 46.776 26.925s27.364 4.694 26.481 3.23-1.117-5.992-1.117-5.992a92.606 92.606 0 01-40.37-8.934c-20.744-9.93-26.926-20.985-26.926-20.985l-3.891 4.746" fill="#85c3e9"/><path d="M3699.576 1373.676c12.126 18.34 28.614 35.356 47.27 37.488 27.223-3.111 49.83-33.676 61-68.042 0 0 6.256-16.328 6.9-34.309q.616-7.039.623-14.268c-6.685 1.114-50.637-3.635-68.527-29.8-19.411 26.723-61.84 30.915-68.526 29.8a172.9 172.9 0 002.452 29.329c2.979 26.794 18.808 49.802 18.808 49.802z" fill="none" stroke="#3e4147" stroke-linecap="round" stroke-linejoin="round" stroke-width="2"/><path d="M3702.5 1385.213c9.733 12.755 29.536 27.858 36.249 29.872s3.356 6.377-3.021 6.042-28.865-17.118-34.235-24.837-4.436-11.014 1.007-11.077zM3747.48 1248.609c-2.014 2.349.336 9.062 3.692 12.418a89.287 89.287 0 0031.55 21.146c17.453 6.712 33.9 9.4 37.927 7.384s8.391-2.35 5.37-3.357-32.743-5.35-50.01-14.768c-18.46-10.069-28.529-22.823-28.529-22.823z" fill="#fff"/><g fill="#d8e9f7"><path d="M3765.965 1285.035l10.942-.077.022 3.187-10.942.077zM3766.034 1295.458l11.014 10.742-.111-16.579-10.942.073z"/><path d="M3765.3 1295.771l-.077-11.467 12.414-.083.151 22.558M3765.255 1288.963l12.414-.083" stroke="#3e4147" stroke-linecap="round" stroke-linejoin="round" stroke-width="2"/><path d="M3795.282 1332.985l10.7 2.458-57.928-56.5h-.439l-57.168 57.265 10.662-2.6" stroke="#3e4147" stroke-linecap="round" stroke-linejoin="round" stroke-width="2"/><path d="M3747.891 1287.992l-46 45.873 10.569 60.481 22.5-.151-.3-44.278a.736.736 0 01.731-.741l25.79-.172a.743.743 0 01.522.212.735.735 0 01.219.519l.3 44.278 22.5-.15 9.761-60.616zm-17.164 86.953a.736.736 0 01.67 1.053l-3.547 7.432a.736.736 0 01-.659.419l-11.762.079a.765.765 0 01-.172-.019.739.739 0 01-.493-.392l-3.645-7.384a.736.736 0 01.655-1.062l2.432-.016-.1-14.827-.1-15.564a.734.734 0 01.212-.521.742.742 0 01.519-.22l12.618-.084a.737.737 0 01.741.731l.2 30.392zm26.794-46.47a12.955 12.955 0 113.734-9.186 12.877 12.877 0 01-3.734 9.186zm28.273 46.448a.735.735 0 01.043.711l-3.547 7.432a.735.735 0 01-.659.42l-5.881.039-5.88.039a.759.759 0 01-.172-.019.735.735 0 01-.493-.391l-3.646-7.384a.736.736 0 01.655-1.062l2.432-.016-.1-14.827-.1-15.563a.737.737 0 01.732-.741l12.617-.085a.739.739 0 01.741.732l.2 30.392 2.432-.017a.736.736 0 01.626.34z"/><path d="M3747.364 1286.437a.736.736 0 011.033-.006l47.251 45.883 7.938 1.825-38.8-37.842v-.005l-16.944-16.525-55.018 55.111 7.912-1.93z"/><path d="M3748.6 1394.84l36.757-.245 9.921-61.61-47.4-46.026-46.779 46.655 10.743 61.472z" stroke="#3e4147" stroke-linecap="round" stroke-linejoin="round" stroke-width="2"/><path d="M3782.01 1376.075l-6.307.042-6.306.042h-.005l-1.99.013 2.922 5.917 10.839-.073 2.842-5.955-1.991.013zM3759.745 1318.563a11.323 11.323 0 00-10.786-10.632l.072 10.7zM3749.04 1320.107l.072 10.709a11.482 11.482 0 0010.638-10.781zM3736.858 1320.188a11.484 11.484 0 0010.782 10.638l-.072-10.71zM3747.487 1307.935a11.479 11.479 0 00-10.638 10.78l10.709-.071zM3770.025 1360.59l4.836-.034.099 14.092-4.836.034zM3769.921 1345.026l4.836-.032.094 14.091-4.836.033zM3776.229 1344.984l4.836-.034.099 14.092-4.836.034zM3776.333 1360.548l4.836-.032.094 14.091-4.836.033zM3727.569 1376.438l-6.307.042-6.307.042-1.99.013 2.921 5.917 10.84-.073 2.842-5.955-1.992.013zM3740.138 1382.975l16.335-.11.041 6.25-16.334.11zM3721.893 1360.912l4.836-.032.094 14.091-4.836.033z"/><path d="M3736.15 1350.643l.291 43.542 12.159-.081 12.158-.081-.29-43.542zm2.135 22.957a3.162 3.162 0 11.94 2.228 3.143 3.143 0 01-.94-2.228zm19.655 8.52l.052 7.722a.736.736 0 01-.731.741l-17.808.119a.738.738 0 01-.522-.212.742.742 0 01-.219-.519l-.051-7.722a.736.736 0 01.731-.741l17.807-.12a.736.736 0 01.741.732zm-.342-18.92a.734.734 0 01-.519.219l-17.807.119a.765.765 0 01-.172-.019.736.736 0 01-.569-.712l-.052-7.722a.737.737 0 01.732-.741l17.806-.119a.735.735 0 01.742.731l.051 7.722a.733.733 0 01-.21.522zM3721.789 1345.348l4.836-.032.094 14.091-4.836.033zM3715.584 1360.954l4.836-.032.094 14.091-4.836.033zM3715.48 1345.39l4.836-.034.099 14.092-4.836.034z"/><path d="M3739.956 1355.811l16.335-.11.041 6.25-16.334.11zM3741.455 1375.266a1.685 1.685 0 10-1.2-.486 1.681 1.681 0 001.2.486z"/></g><path d="M3747.891 1287.992l-46 45.874.641 3.668 45.668-45.034 45.872 43.35.419-2.6z" fill="#85c3e9"/><path d="M3735.71 1394.926l-.3-45.014 25.79-.172.3 45.014" fill="none" stroke="#3e4147" stroke-linecap="round" stroke-linejoin="round" stroke-width="2"/><path d="M3727.564 1375.7l-.208-31.128-6.309.042-6.309.042.208 31.128M3721.048 1344.616l.208 31.128M3714.843 1360.222l12.617-.084M3769.387 1375.423l-.208-31.128 6.309-.042 6.309-.042.208 31.128M3775.488 1344.253l.208 31.128M3781.9 1359.775l-12.617.084M3739.216 1355.08l17.808-.119.051 7.722-17.807.119zM3739.397 1382.244l17.808-.119.051 7.722-17.807.119z" fill="#d8e9f7" stroke="#3e4147" stroke-linecap="round" stroke-linejoin="round" stroke-width="2"/><circle cx="3741.444" cy="1373.579" fill="#d8e9f7" r="2.423" stroke="#3e4147" stroke-linecap="round" stroke-linejoin="round" stroke-width="2"/><circle cx="3748.299" cy="1319.375" fill="#d8e9f7" r="12.219" stroke="#3e4147" stroke-linecap="round" stroke-linejoin="round" stroke-width="2"/><path d="M3748.218 1307.156l.163 24.438M3760.518 1319.294l-24.438.163M3721.305 1383.152l5.881-.039 3.547-7.432-9.477.063-9.477.063 3.646 7.384zM3775.745 1382.789l-5.881.039-3.646-7.384 9.477-.063 9.477-.063-3.547 7.432z" fill="#d8e9f7" stroke="#3e4147" stroke-linecap="round" stroke-linejoin="round" stroke-width="2"/></g></svg>
